<svg width="1359" height="102" viewBox="0 0 1359 102" fill="none" xmlns="http://www.w3.org/2000/svg">
<path d="M28.6153 80.2521C22.2852 80.2521 16.8595 79.1391 12.3381 76.9132C7.88622 74.6872 4.09517 71.87 0.96495 68.4616L11.399 57.9232C13.8336 60.7056 16.5813 62.7924 19.6419 64.1836C22.7722 65.5748 26.1111 66.2704 29.6587 66.2704C33.5541 66.2704 36.4408 65.4705 38.3189 63.8706C40.1971 62.2707 41.1361 60.1491 41.1361 57.5058C41.1361 56.1841 40.8927 55.0016 40.4058 53.9582C39.9884 52.8452 39.1537 51.941 37.9016 51.2454C36.7191 50.4802 34.98 49.9585 32.6845 49.6802L25.485 48.7412C20.4071 48.0456 16.1987 46.7935 12.8598 44.9849C9.59045 43.1068 7.15584 40.6722 5.55594 37.6811C3.95605 34.6204 3.15611 31.0728 3.15611 27.0383C3.15611 22.656 4.23429 18.8301 6.39067 15.5608C8.61661 12.2219 11.7468 9.61338 15.7813 7.73525C19.8854 5.85711 24.7894 4.91805 30.4934 4.91805C35.9887 4.91805 40.8231 5.82233 44.9968 7.63091C49.1704 9.36992 52.7528 11.8741 55.7439 15.1434L45.2054 25.7862C43.4664 23.7689 41.3448 22.1343 38.8407 20.8822C36.406 19.5605 33.3106 18.8997 29.5543 18.8997C26.0067 18.8997 23.3634 19.5258 21.6244 20.7778C19.8854 22.0299 19.0159 23.7689 19.0159 25.9949C19.0159 27.6643 19.2941 29.0208 19.8506 30.0642C20.4767 31.1076 21.4157 31.9075 22.6678 32.464C23.9895 33.0205 25.6589 33.4726 27.6762 33.8204L34.8757 34.9682C39.8841 35.7334 44.0229 37.0202 47.2923 38.8288C50.5616 40.6374 52.9962 43.0024 54.5961 45.924C56.196 48.8455 56.996 52.3931 56.996 56.5667C56.996 61.2273 55.883 65.3314 53.657 68.8789C51.5007 72.4265 48.3009 75.209 44.0577 77.2262C39.8145 79.2435 34.667 80.2521 28.6153 80.2521ZM77.0318 18.378C73.9016 18.378 71.6061 17.6476 70.1453 16.1868C68.7541 14.7261 68.0585 12.9175 68.0585 10.7611V8.46563C68.0585 6.2397 68.7541 4.43112 70.1453 3.03991C71.6061 1.57914 73.9016 0.848759 77.0318 0.848759C80.162 0.848759 82.4228 1.57914 83.814 3.03991C85.2747 4.43112 86.0051 6.2397 86.0051 8.46563V10.7611C86.0051 12.9175 85.2747 14.7261 83.814 16.1868C82.4228 17.6476 80.162 18.378 77.0318 18.378ZM69.3106 79V24.2211H84.753V79H69.3106ZM114.608 79H99.1659V24.2211H114.608V33.5074H115.234C116.208 30.5859 117.878 28.1165 120.243 26.0992C122.677 24.0124 125.912 22.969 129.946 22.969C133.703 22.969 136.903 23.9081 139.546 25.7862C142.189 27.6643 144.102 30.412 145.285 34.0291H145.598C146.571 30.9685 148.554 28.3599 151.545 26.2036C154.536 24.0472 158.118 22.969 162.292 22.969C167.579 22.969 171.613 24.8819 174.396 28.7077C177.248 32.464 178.674 37.7854 178.674 44.6719V79H163.231V45.924C163.231 42.3764 162.605 39.7679 161.353 38.0984C160.171 36.3594 158.292 35.4899 155.719 35.4899C154.188 35.4899 152.728 35.8029 151.336 36.429C149.945 36.9854 148.797 37.855 147.893 39.0375C147.058 40.22 146.641 41.7156 146.641 43.5241V79H131.199V45.924C131.199 42.3764 130.573 39.7679 129.32 38.0984C128.068 36.3594 126.19 35.4899 123.686 35.4899C122.225 35.4899 120.799 35.8029 119.408 36.429C118.017 36.9854 116.869 37.855 115.965 39.0375C115.061 40.22 114.608 41.7156 114.608 43.5241V79ZM192.4 99.8682V24.2211H207.843V33.4031H208.364C209.129 30.3424 210.868 27.8382 213.581 25.8905C216.364 23.9429 219.529 22.969 223.076 22.969C227.737 22.969 231.597 24.082 234.658 26.3079C237.788 28.4643 240.153 31.6641 241.753 35.9073C243.353 40.1504 244.153 45.3675 244.153 51.5584C244.153 57.7493 243.353 63.0011 241.753 67.3138C240.153 71.557 237.788 74.7916 234.658 77.0175C231.597 79.1739 227.737 80.2521 223.076 80.2521C219.529 80.2521 216.364 79.2782 213.581 77.3305C210.868 75.3133 209.129 72.8091 208.364 69.818H207.843V99.8682H192.4ZM217.964 67.7312C220.885 67.7312 223.285 66.6878 225.163 64.601C227.111 62.5142 228.085 59.7665 228.085 56.3581V46.863C228.085 43.385 227.111 40.6374 225.163 38.6201C223.285 36.5333 220.885 35.4899 217.964 35.4899C216.016 35.4899 214.277 35.8029 212.747 36.429C211.216 37.055 209.999 37.9941 209.095 39.2462C208.26 40.4287 207.843 41.8547 207.843 43.5241V59.697C207.843 61.3664 208.26 62.8272 209.095 64.0793C209.999 65.2618 211.216 66.1661 212.747 66.7921C214.277 67.4182 216.016 67.7312 217.964 67.7312ZM278.21 79H271.219C265.932 79 262.037 77.7131 259.533 75.1394C257.098 72.5657 255.881 68.8442 255.881 63.9749V1.78783H271.323V67.0008H278.21V79ZM310.319 80.2521C304.754 80.2521 299.989 79.1043 296.024 76.8088C292.129 74.4438 289.138 71.1049 287.051 66.7921C285.034 62.4794 284.025 57.4015 284.025 51.5584C284.025 45.7849 284.999 40.7765 286.947 36.5333C288.964 32.2206 291.886 28.8816 295.711 26.5166C299.537 24.1515 304.198 22.969 309.693 22.969C315.745 22.969 320.614 24.2907 324.301 26.934C328.057 29.5077 330.805 32.9162 332.544 37.1593C334.283 41.4025 335.152 45.9935 335.152 50.9323V55.5233H299.989V56.3581C299.989 59.9752 300.963 62.862 302.911 65.0183C304.928 67.1052 307.989 68.1486 312.093 68.1486C315.362 68.1486 317.971 67.4877 319.918 66.1661C321.936 64.8444 323.814 63.3141 325.553 61.5751L333.274 71.1744C330.839 73.9569 327.64 76.1828 323.675 77.8523C319.779 79.4521 315.327 80.2521 310.319 80.2521ZM310.006 34.3421C307.919 34.3421 306.111 34.8291 304.58 35.8029C303.12 36.7072 301.972 37.9941 301.137 39.6635C300.372 41.333 299.989 43.3155 299.989 45.6109V46.4457H319.188V45.5066C319.188 43.2807 318.84 41.333 318.145 39.6635C317.519 37.9941 316.51 36.7072 315.119 35.8029C313.797 34.8291 312.093 34.3421 310.006 34.3421ZM353.503 61.3664C356.633 61.3664 358.929 62.1664 360.39 63.7662C361.92 65.2966 362.685 67.2791 362.685 69.7137V71.8005C362.685 76.0437 361.642 80.2173 359.555 84.3214C357.538 88.4255 354.86 91.7644 351.521 94.3381H341.087C343.521 92.0426 345.608 89.7471 347.347 87.4516C349.086 85.2257 350.408 82.7215 351.312 79.9391C348.947 79.5217 347.173 78.5826 345.991 77.1219C344.878 75.5915 344.321 73.8177 344.321 71.8005V69.7137C344.321 67.2791 345.051 65.2966 346.512 63.7662C348.043 62.1664 350.373 61.3664 353.503 61.3664ZM452.408 20.2561H432.687V79H416.827V20.2561H397.107V6.17014H452.408V20.2561ZM473.178 79H457.735V24.2211H473.178V36.1159H473.7C474.117 34.0987 474.882 32.1858 475.995 30.3772C477.108 28.5686 478.604 27.1079 480.482 25.9949C482.429 24.8124 484.829 24.2211 487.681 24.2211H490.394V38.6201H486.533C483.542 38.6201 481.038 38.8984 479.021 39.4548C477.073 39.9418 475.612 40.7765 474.639 41.959C473.665 43.1416 473.178 44.811 473.178 46.9674V79ZM547.534 79H538.978C537.1 79 535.326 78.5479 533.656 77.6436C532.057 76.6697 530.77 75.2785 529.796 73.4699C528.822 71.5918 528.335 69.3659 528.335 66.7921V65.4357L531.674 69.4006H527.918C527.083 72.9482 525.24 75.6611 522.388 77.5392C519.536 79.3478 516.023 80.2521 511.849 80.2521C506.354 80.2521 502.145 78.7913 499.224 75.8698C496.302 72.8787 494.842 69.0181 494.842 64.288C494.842 60.3926 495.781 57.1928 497.659 54.6886C499.607 52.1844 502.319 50.3063 505.797 49.0542C509.345 47.8021 513.519 47.1761 518.318 47.1761H526.979V43.7328C526.979 41.0895 526.283 39.0027 524.892 37.4724C523.501 35.8725 521.17 35.0725 517.901 35.0725C514.84 35.0725 512.406 35.7334 510.597 37.055C508.789 38.3767 507.293 39.8722 506.11 41.5417L496.928 33.4031C499.154 30.1337 501.972 27.5948 505.38 25.7862C508.789 23.9081 513.345 22.969 519.049 22.969C526.77 22.969 532.578 24.708 536.474 28.186C540.439 31.5945 542.421 36.5333 542.421 43.0024V67.0008H547.534V79ZM526.979 55.9407H519.466C516.475 55.9407 514.214 56.4624 512.684 57.5058C511.154 58.5492 510.388 60.0795 510.388 62.0968V63.6619C510.388 65.6096 511.014 67.0704 512.267 68.0442C513.519 69.0181 515.292 69.505 517.588 69.505C519.327 69.505 520.892 69.2615 522.283 68.7746C523.674 68.2877 524.787 67.5225 525.622 66.4791C526.526 65.4357 526.979 64.0793 526.979 62.4098V55.9407ZM573.341 79H557.898V24.2211H573.341V33.5074H573.967C574.941 30.6554 576.645 28.186 579.08 26.0992C581.514 24.0124 584.888 22.969 589.201 22.969C594.766 22.969 599.009 24.8819 601.93 28.7077C604.852 32.464 606.313 37.7854 606.313 44.6719V79H590.87V45.924C590.87 42.4459 590.314 39.8374 589.201 38.0984C588.088 36.3594 586.105 35.4899 583.253 35.4899C581.584 35.4899 579.984 35.8029 578.454 36.429C576.993 36.9854 575.776 37.855 574.802 39.0375C573.828 40.22 573.341 41.7156 573.341 43.5241V79ZM638.627 80.2521C633.341 80.2521 628.889 79.4174 625.272 77.7479C621.655 76.0089 618.42 73.5743 615.568 70.4441L624.646 61.2621C626.593 63.4184 628.75 65.1227 631.115 66.3748C633.48 67.6269 636.158 68.2529 639.149 68.2529C642.21 68.2529 644.331 67.8008 645.514 66.8965C646.696 65.9226 647.288 64.6358 647.288 63.0359C647.288 61.6447 646.835 60.6012 645.931 59.9056C645.096 59.21 643.705 58.7231 641.757 58.4449L635.81 57.7145C631.706 57.158 628.263 56.1841 625.48 54.7929C622.767 53.4017 620.715 51.5584 619.324 49.2629C618.003 46.8978 617.342 44.0806 617.342 40.8113C617.342 35.5247 619.255 31.2467 623.08 27.9774C626.906 24.6385 632.089 22.969 638.627 22.969C642.453 22.969 645.688 23.3168 648.331 24.0124C650.974 24.6385 653.27 25.6123 655.217 26.934C657.235 28.186 659.148 29.7164 660.956 31.5249L652.087 40.6026C650.348 38.8636 648.366 37.5072 646.14 36.5333C643.983 35.4899 641.757 34.9682 639.462 34.9682C636.888 34.9682 635.01 35.3856 633.828 36.2203C632.715 37.055 632.158 38.168 632.158 39.5592C632.158 41.02 632.541 42.1677 633.306 43.0024C634.141 43.7676 635.671 44.3241 637.897 44.6719L644.053 45.5066C650.035 46.2718 654.522 48.0456 657.513 50.828C660.574 53.5409 662.104 57.2623 662.104 61.9925C662.104 65.4705 661.13 68.6007 659.182 71.3831C657.235 74.1655 654.487 76.3567 650.939 77.9566C647.461 79.4869 643.357 80.2521 638.627 80.2521ZM672.633 99.8682V24.2211H688.075V33.4031H688.597C689.362 30.3424 691.101 27.8382 693.814 25.8905C696.596 23.9429 699.761 22.969 703.309 22.969C707.969 22.969 711.83 24.082 714.891 26.3079C718.021 28.4643 720.386 31.6641 721.986 35.9073C723.586 40.1504 724.386 45.3675 724.386 51.5584C724.386 57.7493 723.586 63.0011 721.986 67.3138C720.386 71.557 718.021 74.7916 714.891 77.0175C711.83 79.1739 707.969 80.2521 703.309 80.2521C699.761 80.2521 696.596 79.2782 693.814 77.3305C691.101 75.3133 689.362 72.8091 688.597 69.818H688.075V99.8682H672.633ZM698.196 67.7312C701.118 67.7312 703.517 66.6878 705.396 64.601C707.343 62.5142 708.317 59.7665 708.317 56.3581V46.863C708.317 43.385 707.343 40.6374 705.396 38.6201C703.517 36.5333 701.118 35.4899 698.196 35.4899C696.248 35.4899 694.509 35.8029 692.979 36.429C691.449 37.055 690.231 37.9941 689.327 39.2462C688.492 40.4287 688.075 41.8547 688.075 43.5241V59.697C688.075 61.3664 688.492 62.8272 689.327 64.0793C690.231 65.2618 691.449 66.1661 692.979 66.7921C694.509 67.4182 696.248 67.7312 698.196 67.7312ZM785.154 79H776.598C774.719 79 772.946 78.5479 771.276 77.6436C769.676 76.6697 768.389 75.2785 767.416 73.4699C766.442 71.5918 765.955 69.3659 765.955 66.7921V65.4357L769.294 69.4006H765.537C764.703 72.9482 762.859 75.6611 760.007 77.5392C757.155 79.3478 753.643 80.2521 749.469 80.2521C743.974 80.2521 739.765 78.7913 736.844 75.8698C733.922 72.8787 732.461 69.0181 732.461 64.288C732.461 60.3926 733.401 57.1928 735.279 54.6886C737.226 52.1844 739.939 50.3063 743.417 49.0542C746.965 47.8021 751.138 47.1761 755.938 47.1761H764.598V43.7328C764.598 41.0895 763.903 39.0027 762.512 37.4724C761.12 35.8725 758.79 35.0725 755.521 35.0725C752.46 35.0725 750.025 35.7334 748.217 37.055C746.408 38.3767 744.913 39.8722 743.73 41.5417L734.548 33.4031C736.774 30.1337 739.591 27.5948 743 25.7862C746.408 23.9081 750.965 22.969 756.669 22.969C764.39 22.969 770.198 24.708 774.093 28.186C778.058 31.5945 780.041 36.5333 780.041 43.0024V67.0008H785.154V79ZM764.598 55.9407H757.086C754.095 55.9407 751.834 56.4624 750.304 57.5058C748.773 58.5492 748.008 60.0795 748.008 62.0968V63.6619C748.008 65.6096 748.634 67.0704 749.886 68.0442C751.138 69.0181 752.912 69.505 755.208 69.505C756.947 69.505 758.512 69.2615 759.903 68.7746C761.294 68.2877 762.407 67.5225 763.242 66.4791C764.146 65.4357 764.598 64.0793 764.598 62.4098V55.9407ZM810.961 79H795.518V24.2211H810.961V36.1159H811.482C811.9 34.0987 812.665 32.1858 813.778 30.3772C814.891 28.5686 816.386 27.1079 818.265 25.9949C820.212 24.8124 822.612 24.2211 825.464 24.2211H828.177V38.6201H824.316C821.325 38.6201 818.821 38.8984 816.804 39.4548C814.856 39.9418 813.395 40.7765 812.422 41.959C811.448 43.1416 810.961 44.811 810.961 46.9674V79ZM860.044 80.2521C854.479 80.2521 849.714 79.1043 845.749 76.8088C841.854 74.4438 838.863 71.1049 836.776 66.7921C834.759 62.4794 833.75 57.4015 833.75 51.5584C833.75 45.7849 834.724 40.7765 836.672 36.5333C838.689 32.2206 841.611 28.8816 845.436 26.5166C849.262 24.1515 853.923 22.969 859.418 22.969C865.47 22.969 870.339 24.2907 874.026 26.934C877.782 29.5077 880.53 32.9162 882.269 37.1593C884.008 41.4025 884.877 45.9935 884.877 50.9323V55.5233H849.714V56.3581C849.714 59.9752 850.688 62.862 852.636 65.0183C854.653 67.1052 857.714 68.1486 861.818 68.1486C865.087 68.1486 867.696 67.4877 869.643 66.1661C871.661 64.8444 873.539 63.3141 875.278 61.5751L882.999 71.1744C880.564 73.9569 877.365 76.1828 873.4 77.8523C869.504 79.4521 865.052 80.2521 860.044 80.2521ZM859.731 34.3421C857.644 34.3421 855.836 34.8291 854.305 35.8029C852.845 36.7072 851.697 37.9941 850.862 39.6635C850.097 41.333 849.714 43.3155 849.714 45.6109V46.4457H868.913V45.5066C868.913 43.2807 868.565 41.333 867.87 39.6635C867.244 37.9941 866.235 36.7072 864.844 35.8029C863.522 34.8291 861.818 34.3421 859.731 34.3421ZM911.226 79H895.783V24.2211H911.226V33.5074H911.852C912.826 30.6554 914.53 28.186 916.964 26.0992C919.399 24.0124 922.773 22.969 927.085 22.969C932.65 22.969 936.894 24.8819 939.815 28.7077C942.737 32.464 944.197 37.7854 944.197 44.6719V79H928.755V45.924C928.755 42.4459 928.198 39.8374 927.085 38.0984C925.973 36.3594 923.99 35.4899 921.138 35.4899C919.469 35.4899 917.869 35.8029 916.338 36.429C914.878 36.9854 913.66 37.855 912.686 39.0375C911.713 40.22 911.226 41.7156 911.226 43.5241V79ZM986.32 79H977.138C971.851 79 967.817 77.6436 965.035 74.9307C962.252 72.2178 960.861 68.2529 960.861 63.0359V36.2203H953.14V24.2211H957C959.087 24.2211 960.513 23.7342 961.278 22.7603C962.043 21.7169 962.426 20.2561 962.426 18.378V9.4047H976.303V24.2211H987.155V36.2203H976.303V67.0008H986.32V79ZM1039.24 79H1023.38V6.17014H1057.81C1062.33 6.17014 1066.23 7.14399 1069.49 9.09168C1072.83 11.0394 1075.41 13.787 1077.22 17.3346C1079.02 20.8126 1079.93 24.8471 1079.93 29.4381C1079.93 34.0291 1079.02 38.0636 1077.22 41.5417C1075.41 45.0197 1072.83 47.7673 1069.49 49.7846C1066.23 51.7323 1062.33 52.7061 1057.81 52.7061H1039.24V79ZM1039.24 19.9431V38.9331H1055.93C1057.53 38.9331 1058.89 38.6549 1060 38.0984C1061.11 37.5419 1061.98 36.742 1062.61 35.6986C1063.23 34.5856 1063.55 33.264 1063.55 31.7336V27.1426C1063.55 25.5427 1063.23 24.2211 1062.61 23.1777C1061.98 22.1343 1061.11 21.3343 1060 20.7778C1058.89 20.2214 1057.53 19.9431 1055.93 19.9431H1039.24ZM1105.44 79H1090V24.2211H1105.44V36.1159H1105.96C1106.38 34.0987 1107.14 32.1858 1108.26 30.3772C1109.37 28.5686 1110.86 27.1079 1112.74 25.9949C1114.69 24.8124 1117.09 24.2211 1119.94 24.2211H1122.65V38.6201H1118.79C1115.8 38.6201 1113.3 38.8984 1111.28 39.4548C1109.33 39.9418 1107.87 40.7765 1106.9 41.959C1105.93 43.1416 1105.44 44.811 1105.44 46.9674V79ZM1139.9 18.378C1136.77 18.378 1134.48 17.6476 1133.02 16.1868C1131.62 14.7261 1130.93 12.9175 1130.93 10.7611V8.46563C1130.93 6.2397 1131.62 4.43112 1133.02 3.03991C1134.48 1.57914 1136.77 0.848759 1139.9 0.848759C1143.03 0.848759 1145.29 1.57914 1146.68 3.03991C1148.14 4.43112 1148.87 6.2397 1148.87 8.46563V10.7611C1148.87 12.9175 1148.14 14.7261 1146.68 16.1868C1145.29 17.6476 1143.03 18.378 1139.9 18.378ZM1132.18 79V24.2211H1147.62V79H1132.18ZM1184.16 80.2521C1175.95 80.2521 1169.62 77.6784 1165.17 72.5309C1160.78 67.3138 1158.59 60.323 1158.59 51.5584C1158.59 42.7937 1160.78 35.8377 1165.17 30.6902C1169.62 25.5427 1175.95 22.969 1184.16 22.969C1189.72 22.969 1194.35 24.2211 1198.03 26.7253C1201.79 29.2294 1204.47 32.7423 1206.07 37.2637L1193.55 42.6894C1193.06 40.6026 1192.05 38.8288 1190.52 37.368C1188.99 35.9073 1186.87 35.1769 1184.16 35.1769C1181.03 35.1769 1178.66 36.2203 1177.06 38.3071C1175.46 40.3244 1174.66 43.072 1174.66 46.55V56.7754C1174.66 60.1839 1175.46 62.9315 1177.06 65.0183C1178.66 67.1052 1181.03 68.1486 1184.16 68.1486C1187.22 68.1486 1189.48 67.3138 1190.94 65.6444C1192.47 63.9749 1193.62 62.062 1194.38 59.9056L1206.38 65.1227C1204.57 70.3397 1201.75 74.1655 1197.93 76.6002C1194.1 79.0348 1189.51 80.2521 1184.16 80.2521ZM1223.66 18.378C1220.53 18.378 1218.23 17.6476 1216.77 16.1868C1215.38 14.7261 1214.69 12.9175 1214.69 10.7611V8.46563C1214.69 6.2397 1215.38 4.43112 1216.77 3.03991C1218.23 1.57914 1220.53 0.848759 1223.66 0.848759C1226.79 0.848759 1229.05 1.57914 1230.44 3.03991C1231.9 4.43112 1232.63 6.2397 1232.63 8.46563V10.7611C1232.63 12.9175 1231.9 14.7261 1230.44 16.1868C1229.05 17.6476 1226.79 18.378 1223.66 18.378ZM1215.94 79V24.2211H1231.38V79H1215.94ZM1261.24 79H1245.79V24.2211H1261.24V33.5074H1261.86C1262.84 30.6554 1264.54 28.186 1266.97 26.0992C1269.41 24.0124 1272.78 22.969 1277.1 22.969C1282.66 22.969 1286.9 24.8819 1289.83 28.7077C1292.75 32.464 1294.21 37.7854 1294.21 44.6719V79H1278.77V45.924C1278.77 42.4459 1278.21 39.8374 1277.1 38.0984C1275.98 36.3594 1274 35.4899 1271.15 35.4899C1269.48 35.4899 1267.88 35.8029 1266.35 36.429C1264.89 36.9854 1263.67 37.855 1262.7 39.0375C1261.72 40.22 1261.24 41.7156 1261.24 43.5241V79ZM1358.66 82.9649C1358.66 86.7908 1357.72 90.0601 1355.84 92.773C1354.03 95.4858 1350.97 97.5379 1346.66 98.9291C1342.35 100.39 1336.47 101.12 1329.03 101.12C1322.7 101.12 1317.62 100.599 1313.79 99.5551C1310.04 98.5813 1307.29 97.1205 1305.55 95.1728C1303.88 93.2947 1303.05 91.034 1303.05 88.3907C1303.05 85.33 1303.95 82.9302 1305.76 81.1912C1307.57 79.4521 1310.07 78.374 1313.27 77.9566V76.8088C1310.7 76.3219 1308.71 75.209 1307.32 73.4699C1306 71.6614 1305.34 69.5745 1305.34 67.2095C1305.34 64.3575 1306.38 62.1664 1308.47 60.636C1310.63 59.0361 1312.99 57.9927 1315.57 57.5058V57.0884C1312.3 55.5581 1309.83 53.4713 1308.16 50.828C1306.56 48.1151 1305.76 44.9849 1305.76 41.4373C1305.76 37.7506 1306.63 34.516 1308.37 31.7336C1310.11 28.9512 1312.71 26.7948 1316.19 25.2645C1319.67 23.7342 1324.02 22.969 1329.24 22.969C1330.97 22.969 1332.61 23.0733 1334.14 23.282C1335.74 23.4211 1337.2 23.6646 1338.52 24.0124V21.9256C1338.52 19.0736 1339.25 16.9868 1340.71 15.6651C1342.17 14.3435 1344.19 13.6827 1346.76 13.6827H1355.42V25.1602H1343.32V25.7862C1346.52 27.3165 1348.89 29.4381 1350.42 32.151C1351.95 34.8638 1352.71 37.9593 1352.71 41.4373C1352.71 45.0545 1351.84 48.2542 1350.1 51.0367C1348.43 53.7495 1345.86 55.8711 1342.38 57.4015C1338.9 58.8622 1334.52 59.5926 1329.24 59.5926C1327.43 59.5926 1325.69 59.4883 1324.02 59.2796C1322.42 59.0709 1320.92 58.7927 1319.53 58.4449C1318.84 58.9318 1318.24 59.5578 1317.76 60.323C1317.34 61.0186 1317.13 61.8533 1317.13 62.8272C1317.13 64.1488 1317.62 65.1922 1318.59 65.9574C1319.64 66.653 1321.34 67.0008 1323.71 67.0008H1339.57C1346.24 67.0008 1351.08 68.392 1354.07 71.1744C1357.13 73.9569 1358.66 77.887 1358.66 82.9649ZM1344.16 85.0518C1344.16 83.4519 1343.5 82.2346 1342.17 81.3998C1340.92 80.5651 1338.77 80.1477 1335.7 80.1477H1316.92C1316.23 80.8434 1315.71 81.6085 1315.36 82.4432C1315.08 83.3475 1314.94 84.217 1314.94 85.0518C1314.94 86.9995 1315.81 88.4602 1317.55 89.4341C1319.29 90.4079 1322.24 90.8948 1326.42 90.8948H1332.68C1336.85 90.8948 1339.81 90.4079 1341.55 89.4341C1343.29 88.4602 1344.16 86.9995 1344.16 85.0518ZM1329.24 49.4716C1332.3 49.4716 1334.56 48.8107 1336.02 47.4891C1337.55 46.1674 1338.31 44.3241 1338.31 41.959V40.7069C1338.31 38.2723 1337.55 36.429 1336.02 35.1769C1334.56 33.8552 1332.3 33.1944 1329.24 33.1944C1326.24 33.1944 1323.98 33.8552 1322.45 35.1769C1320.92 36.429 1320.16 38.2723 1320.16 40.7069V41.959C1320.16 44.3241 1320.92 46.1674 1322.45 47.4891C1323.98 48.8107 1326.24 49.4716 1329.24 49.4716Z" fill="white"/>
</svg>
